<?xml version="1.0" ?><svg style="margin-top: 3px; enable-background:new 0 0 24 24;" version="1.1" viewBox="0 0 24 24" xml:space="preserve" xmlns="http://www.w3.org/2000/svg" xmlns:xlink="http://www.w3.org/1999/xlink"><style type="text/css">
	.st0{opacity:0.2;fill:none;stroke:#000000;stroke-width:5.000000e-02;stroke-miterlimit:10;}
</style><g id="Layer_Grid"/><g id="Layer_2"><path d="M3.7,15.8c0.1,0.3,0.3,0.5,0.6,0.6c0.1,0,0.2,0.1,0.3,0.1c0.2,0,0.3,0,0.5-0.1l6.2-3.2l4.1,7.4c0.2,0.3,0.5,0.5,0.9,0.5   c0.2,0,0.3,0,0.5-0.1c0.5-0.3,0.7-0.9,0.4-1.4l-4.1-7.3l6.4-3.3c0.2-0.1,0.4-0.3,0.5-0.6c0.1-0.3,0-0.5-0.1-0.8   c-0.1-0.2-0.2-0.3-0.3-0.5C17.9,4.5,15.1,3,12.1,3c-1,0-2,0.2-3,0.5C8.5,3.7,8.1,4,7.6,4.2c-0.1,0-0.1,0.1-0.2,0.1   C6.7,4.8,6,5.4,5.4,6.1C3.8,7.7,3,10,3,12.3C3,13.5,3.2,14.7,3.7,15.8z M12.1,5c2.1,0,4.1,1,5.5,2.7l-2,1c-0.8-1.8-2.2-3-3.7-3.7   C11.9,5,12,5,12.1,5z M8.7,6.2C10,6.4,12.8,7,13.7,9.6l-4.5,2.3C7.8,9.7,8.3,7.3,8.7,6.2z M6.3,8.1c-0.1,1.4,0.2,3.1,1.2,4.7   L5.2,14C5.1,13.4,5,12.9,5,12.3C5,10.8,5.4,9.4,6.3,8.1z"/></g></svg>